<svg
   class="h-6 w-6"
   fill="none"
   viewBox="0 0 24 24"
   stroke="currentColor"
   stroke-width="2"
   xmlns="http://www.w3.org/2000/svg">
  <path
     stroke-linecap="round"
     stroke-linejoin="round"
     d="M21 12a9 9 0 01-9 9m9-9a9 9 0 00-9-9m9 9H3m9 9a9 9 0 01-9-9m9 9c1.657 0 3-4.03 3-9s-1.343-9-3-9m0 18c-1.657 0-3-4.03-3-9s1.343-9 3-9m-9 9a9 9 0 019-9"
     id="path4" />
  <path
     stroke-linecap="round"
     stroke-linejoin="round"
     d="M 17.123106,13.227711 V 20.9815 M 21,17.104606 h -7.753789"
     id="path2"
     style="stroke:#000000;stroke-width:2" />
</svg>
